<svg width="78" height="82" viewBox="0 0 78 82" fill="none" xmlns="http://www.w3.org/2000/svg">
<g filter="url(#filter0_d_5_37)">
<path d="M24.3 0H53.7C64.9 0 74 9.1 74 20.3V49.7C74 55.0839 71.8613 60.2473 68.0543 64.0543C64.2473 67.8613 59.0839 70 53.7 70H24.3C13.1 70 4 60.9 4 49.7V20.3C4 14.9161 6.13874 9.75272 9.94573 5.94573C13.7527 2.13874 18.9161 0 24.3 0ZM23.6 7C20.2583 7 17.0534 8.3275 14.6905 10.6905C12.3275 13.0534 11 16.2583 11 19.6V50.4C11 57.365 16.635 63 23.6 63H54.4C57.7417 63 60.9466 61.6725 63.3095 59.3095C65.6725 56.9466 67 53.7417 67 50.4V19.6C67 12.635 61.365 7 54.4 7H23.6ZM57.375 12.25C58.5353 12.25 59.6481 12.7109 60.4686 13.5314C61.2891 14.3519 61.75 15.4647 61.75 16.625C61.75 17.7853 61.2891 18.8981 60.4686 19.7186C59.6481 20.5391 58.5353 21 57.375 21C56.2147 21 55.1019 20.5391 54.2814 19.7186C53.4609 18.8981 53 17.7853 53 16.625C53 15.4647 53.4609 14.3519 54.2814 13.5314C55.1019 12.7109 56.2147 12.25 57.375 12.25ZM39 17.5C43.6413 17.5 48.0925 19.3437 51.3744 22.6256C54.6563 25.9075 56.5 30.3587 56.5 35C56.5 39.6413 54.6563 44.0925 51.3744 47.3744C48.0925 50.6563 43.6413 52.5 39 52.5C34.3587 52.5 29.9075 50.6563 26.6256 47.3744C23.3437 44.0925 21.5 39.6413 21.5 35C21.5 30.3587 23.3437 25.9075 26.6256 22.6256C29.9075 19.3437 34.3587 17.5 39 17.5ZM39 24.5C36.2152 24.5 33.5445 25.6062 31.5754 27.5754C29.6062 29.5445 28.5 32.2152 28.5 35C28.5 37.7848 29.6062 40.4555 31.5754 42.4246C33.5445 44.3938 36.2152 45.5 39 45.5C41.7848 45.5 44.4555 44.3938 46.4246 42.4246C48.3938 40.4555 49.5 37.7848 49.5 35C49.5 32.2152 48.3938 29.5445 46.4246 27.5754C44.4555 25.6062 41.7848 24.5 39 24.5Z" fill="white"/>
</g>
<defs>
<filter id="filter0_d_5_37" x="0" y="0" width="78" height="82" filterUnits="userSpaceOnUse" color-interpolation-filters="sRGB">
<feFlood flood-opacity="0" result="BackgroundImageFix"/>
<feColorMatrix in="SourceAlpha" type="matrix" values="0 0 0 0 0 0 0 0 0 0 0 0 0 0 0 0 0 0 127 0" result="hardAlpha"/>
<feOffset dy="8"/>
<feGaussianBlur stdDeviation="2"/>
<feComposite in2="hardAlpha" operator="out"/>
<feColorMatrix type="matrix" values="0 0 0 0 0 0 0 0 0 0 0 0 0 0 0 0 0 0 0.25 0"/>
<feBlend mode="normal" in2="BackgroundImageFix" result="effect1_dropShadow_5_37"/>
<feBlend mode="normal" in="SourceGraphic" in2="effect1_dropShadow_5_37" result="shape"/>
</filter>
</defs>
</svg>
