<svg width="71" height="76" viewBox="0 0 71 76" fill="none" xmlns="http://www.w3.org/2000/svg">
<g filter="url(#filter0_d_5_41)">
<path d="M60 0.5C61.8565 0.5 63.637 1.2375 64.9497 2.55025C66.2625 3.86301 67 5.64348 67 7.5V56.5C67 58.3565 66.2625 60.137 64.9497 61.4497C63.637 62.7625 61.8565 63.5 60 63.5H11C9.14348 63.5 7.36301 62.7625 6.05025 61.4497C4.7375 60.137 4 58.3565 4 56.5V7.5C4 5.64348 4.7375 3.86301 6.05025 2.55025C7.36301 1.2375 9.14348 0.5 11 0.5H60ZM58.25 54.75V36.2C58.25 33.1739 57.0479 30.2717 54.9081 28.1319C52.7683 25.9921 49.8661 24.79 46.84 24.79C43.865 24.79 40.4 26.61 38.72 29.34V25.455H28.955V54.75H38.72V37.495C38.72 34.8 40.89 32.595 43.585 32.595C44.8846 32.595 46.1309 33.1112 47.0498 34.0302C47.9688 34.9491 48.485 36.1954 48.485 37.495V54.75H58.25ZM17.58 19.96C19.1395 19.96 20.6351 19.3405 21.7378 18.2378C22.8405 17.1351 23.46 15.6395 23.46 14.08C23.46 10.825 20.835 8.165 17.58 8.165C16.0112 8.165 14.5067 8.78819 13.3975 9.89746C12.2882 11.0067 11.665 12.5112 11.665 14.08C11.665 17.335 14.325 19.96 17.58 19.96ZM22.445 54.75V25.455H12.75V54.75H22.445Z" fill="white"/>
</g>
<defs>
<filter id="filter0_d_5_41" x="0" y="0.5" width="71" height="75" filterUnits="userSpaceOnUse" color-interpolation-filters="sRGB">
<feFlood flood-opacity="0" result="BackgroundImageFix"/>
<feColorMatrix in="SourceAlpha" type="matrix" values="0 0 0 0 0 0 0 0 0 0 0 0 0 0 0 0 0 0 127 0" result="hardAlpha"/>
<feOffset dy="8"/>
<feGaussianBlur stdDeviation="2"/>
<feComposite in2="hardAlpha" operator="out"/>
<feColorMatrix type="matrix" values="0 0 0 0 0 0 0 0 0 0 0 0 0 0 0 0 0 0 0.25 0"/>
<feBlend mode="normal" in2="BackgroundImageFix" result="effect1_dropShadow_5_41"/>
<feBlend mode="normal" in="SourceGraphic" in2="effect1_dropShadow_5_41" result="shape"/>
</filter>
</defs>
</svg>
